HIERARCHY
ROOT Hips
{
	OFFSET -224.689499 91.882057 -431.625488
	CHANNELS 6 Xposition Yposition Zposition Xrotation Yrotation Zrotation 
	JOINT RightUpLeg
	{
		OFFSET 0.103456 1.857840 10.548509
		CHANNELS 3 Xrotation Yrotation Zrotation
		JOINT RightLeg
		{
			OFFSET 43.500000 -0.000042 0.000010
			CHANNELS 3 Xrotation Yrotation Zrotation
			JOINT RightFoot
			{
				OFFSET 42.372192 0.000019 0.000000
				CHANNELS 3 Xrotation Yrotation Zrotation
				JOINT RightToe
				{
					OFFSET 17.299999 -0.000000 0.000003
					CHANNELS 3 Xrotation Yrotation Zrotation
					End Site
					{
						OFFSET 0.000000 0.000000 0.000000
					}
				}
			}
		}
	}
	JOINT LeftUpLeg
	{
		OFFSET 0.103456 1.857823 -10.548508
		CHANNELS 3 Xrotation Yrotation Zrotation
		JOINT LeftLeg
		{
			OFFSET 43.500042 -0.000027 0.000004
			CHANNELS 3 Xrotation Yrotation Zrotation
			JOINT LeftFoot
			{
				OFFSET 42.372261 0.000000 0.000010
				CHANNELS 3 Xrotation Yrotation Zrotation
				JOINT LeftToe
				{
					OFFSET 17.299994 -0.000006 0.000017
					CHANNELS 3 Xrotation Yrotation Zrotation
					End Site
					{
						OFFSET 0.000000 0.000000 0.000000
					}
				}
			}
		}
	}
	JOINT Spine
	{
		OFFSET 6.901967 -2.603732 -0.000003
		CHANNELS 3 Xrotation Yrotation Zrotation
		JOINT Spine1
		{
			OFFSET 12.588099 0.000010 0.000008
			CHANNELS 3 Xrotation Yrotation Zrotation
			JOINT Spine2
			{
				OFFSET 12.343201 -0.000018 -0.000005
				CHANNELS 3 Xrotation Yrotation Zrotation
				JOINT Neck
				{
					OFFSET 25.832890 0.000023 0.000007
					CHANNELS 3 Xrotation Yrotation Zrotation
					JOINT Head
					{
						OFFSET 11.766609 -0.000008 -0.000006
						CHANNELS 3 Xrotation Yrotation Zrotation
						End Site
						{
							OFFSET 0.000000 0.000000 0.000000
						}
					}
				}
				JOINT RightShoulder
				{
					OFFSET 19.745909 -1.480347 6.000101
					CHANNELS 3 Xrotation Yrotation Zrotation
					JOINT RightArm
					{
						OFFSET 11.284133 0.000018 -0.000020
						CHANNELS 3 Xrotation Yrotation Zrotation
						JOINT RightForeArm
						{
							OFFSET 33.000050 -0.000013 0.000019
							CHANNELS 3 Xrotation Yrotation Zrotation
							JOINT RightHand
							{
								OFFSET 25.200005 0.000032 0.000011
								CHANNELS 3 Xrotation Yrotation Zrotation
								End Site
								{
									OFFSET 0.000000 0.000000 0.000000
								}
							}
						}
					}
				}
				JOINT LeftShoulder
				{
					OFFSET 19.746101 -1.480358 -6.000078
					CHANNELS 3 Xrotation Yrotation Zrotation
					JOINT LeftArm
					{
						OFFSET 11.284140 -0.000000 -0.000001
						CHANNELS 3 Xrotation Yrotation Zrotation
						JOINT LeftForeArm
						{
							OFFSET 33.000103 0.000016 -0.000001
							CHANNELS 3 Xrotation Yrotation Zrotation
							JOINT LeftHand
							{
								OFFSET 25.199762 0.000123 0.000432
								CHANNELS 3 Xrotation Yrotation Zrotation
								End Site
								{
									OFFSET 0.000000 0.000000 0.000000
								}
							}
						}
					}
				}
			}
		}
	}
}
MOTION
Frames: 12
Frame Time: 0.033333
174.386902 88.889107 337.204315 91.706177 6.056478 114.481634 158.226345 -5.193107 -174.877158 -17.021892 -0.773187 -6.921151 67.549943 4.393043 -2.049343 21.454560 0.003128 0.000020 -168.794834 -8.778595 173.955574 -12.540665 5.314478 4.768342 83.003635 -5.695782 -10.608874 21.454550 -0.003107 -0.000001 8.371721 0.908831 0.378378 6.737781 1.794195 0.808966 6.419545 1.798902 0.798108 5.984780 -9.016085 -0.706301 -15.796609 -2.366775 -1.019321 -151.239991 -69.190212 -31.032227 -13.088766 58.754940 27.325505 -25.202874 -13.125762 1.051232 14.349625 -2.810701 -2.166846 -179.589169 78.290681 1.950736 -27.117253 -54.995928 -6.510516 -31.687860 14.018465 -1.200109 10.743427 5.566914 -26.208052 
175.844299 88.319862 340.349701 91.414364 5.829213 112.870911 158.169819 -5.644902 -172.172185 -8.183674 -4.276833 -6.165732 68.839988 3.518873 -3.251674 21.454557 0.003117 0.000021 -166.713812 -8.435504 172.849234 -12.605268 5.473246 4.284052 84.779648 -5.246230 -10.875451 21.454551 -0.003094 -0.000002 8.496542 0.901372 0.378000 6.987379 1.778361 0.809685 6.669141 1.783076 0.798920 5.297265 -8.461440 -0.263646 -16.663631 -3.011493 -0.293104 -150.280035 -69.204597 -32.021901 -8.168405 59.494615 31.773917 -26.059173 -13.371037 1.080742 13.672418 -0.444871 0.222698 -176.413199 78.310168 5.184604 -24.061612 -52.896882 -8.211907 -32.772320 14.333654 -1.243032 11.075438 4.896163 -28.332012 
177.466599 87.546272 343.646088 91.584552 5.860809 111.739381 157.250079 -5.082496 -173.410676 -5.899024 -6.258081 -2.690825 69.624203 0.212423 -5.715380 21.454558 0.003109 0.000016 -164.834513 -7.869710 172.196282 -14.174389 5.563193 3.936972 87.153624 -4.768786 -10.860878 21.454551 -0.003094 -0.000001 8.656379 0.842289 0.417211 7.307084 1.656655 0.886737 6.988881 1.661852 0.876712 5.031620 -8.532020 -0.068639 -17.309800 -2.630654 -0.243271 -149.182956 -68.992499 -33.159735 -3.974867 59.556442 36.153930 -27.560293 -13.903242 1.140384 11.407759 2.038693 4.867812 -173.344300 78.440160 8.310423 -20.401739 -51.148049 -10.310645 -33.634580 14.712087 -1.286044 11.788212 4.415449 -25.051655 
179.106796 86.782669 347.031586 92.120503 5.895471 110.664672 156.664445 -3.209699 -175.962462 -8.139887 -5.691957 1.059552 68.703295 -1.882082 -3.674217 21.454555 0.003112 0.000018 -163.246398 -7.124600 172.072218 -16.655351 5.326996 3.578003 89.063324 -4.298215 -10.629205 21.454553 -0.003108 0.000000 8.757329 0.717059 0.574012 7.509632 1.395470 1.193314 7.191510 1.402521 1.184877 5.364872 -8.997768 -0.199322 -17.673555 -2.041906 -0.624605 -148.108035 -68.422110 -34.287778 -1.512527 59.153318 39.032397 -28.687966 -14.280049 1.184867 9.562062 3.951385 8.222375 -170.367389 78.819188 11.341947 -16.024279 -50.244374 -12.142305 -34.102004 14.965573 -1.312723 12.481319 4.440758 -19.241116 
180.594299 86.100479 350.620392 92.271232 6.090841 109.032475 155.690201 -1.758409 -177.184943 -14.290741 -4.143510 2.066532 67.613053 -2.332038 -2.668255 21.454558 0.003109 0.000017 -161.928663 -6.634700 172.749923 -19.658447 4.841114 2.648018 89.117385 -3.609739 -10.256270 21.454550 -0.003103 -0.000000 8.742730 0.612353 0.883428 7.482184 1.166478 1.804578 7.164193 1.177203 1.797505 6.374868 -8.662288 -0.492259 -17.630498 -2.414739 -0.669565 -145.985977 -67.771917 -36.501535 -0.062926 59.077960 40.503561 -29.088307 -14.550543 1.209645 8.825714 4.754483 9.804626 -169.223278 79.108685 12.506245 -10.721870 -49.825127 -14.009450 -34.569295 15.130676 -1.333849 13.507898 4.506835 -13.486140 
181.993805 85.903397 354.332489 92.826628 6.180643 106.515625 155.996576 -0.824713 -177.533118 -18.476915 -2.855559 1.935489 62.702687 -1.816061 -1.228356 21.454560 0.003118 0.000019 -160.677741 -5.097005 173.581253 -22.322474 4.430742 1.089611 86.473009 -2.764225 -10.005032 21.454550 -0.003095 -0.000001 8.655451 0.341067 1.228173 7.304710 0.604156 2.475384 6.986901 0.618946 2.471690 7.277304 -8.140330 -0.595644 -17.229057 -2.587837 -0.592604 -143.525019 -66.838018 -39.080020 1.620448 59.118873 40.650431 -29.408356 -14.622837 1.220337 8.836110 4.219835 9.170740 -167.679792 79.119115 14.075993 -6.468590 -49.682164 -15.211977 -34.682259 15.182322 -1.339736 14.548124 4.289830 -9.110136 
183.246002 85.879532 358.111694 93.688523 6.303093 103.939572 156.557799 -0.386006 -176.148215 -22.701158 -3.229521 -0.774267 60.731050 -0.090538 -1.824118 21.454558 0.003101 0.000015 -160.766356 -3.219199 176.154335 -27.252009 3.305537 -1.300839 81.689062 -1.411399 -9.423536 21.454560 -0.003082 -0.000003 8.563232 -0.048099 1.350678 7.111532 -0.178817 2.695841 6.793808 -0.162683 2.696855 8.071028 -7.739114 -0.487635 -17.349850 -2.268693 -0.494035 -141.843017 -65.486112 -40.876538 3.299418 58.441906 40.502670 -29.364301 -14.460583 1.209088 8.550209 2.823760 5.963282 -165.691510 78.654792 16.100766 -4.162824 -49.924206 -15.134087 -34.524028 15.404778 -1.350534 15.285313 4.368431 -6.956359 
184.251907 85.626534 361.660095 94.441982 6.498028 101.683717 155.895339 -0.826212 -177.900514 -30.053980 -4.244201 -0.786451 66.743427 0.228016 -1.282722 21.454558 0.003107 0.000017 -163.741040 -1.393301 179.399290 -36.935894 1.783963 -3.887141 75.384859 0.346911 -7.929409 21.454555 -0.003102 0.000002 8.560145 -0.465760 1.285739 7.096561 -1.009229 2.540612 6.778754 -0.994019 2.546657 8.352416 -6.830089 -0.259540 -17.717874 -2.417329 -0.079723 -141.847060 -64.512209 -40.915282 3.899168 57.384394 39.686015 -28.659552 -14.206626 1.179635 8.199463 1.231925 1.359841 -163.398192 77.850448 18.442100 -3.165476 -50.919422 -13.597240 -34.968970 15.844330 -1.389047 15.931607 5.362414 -6.128575 
185.166901 85.631683 364.979004 95.540713 6.573976 99.462219 157.121303 -1.128092 178.469032 -33.553851 -4.544139 0.051722 70.900519 -0.132138 -0.676463 21.454558 0.003102 0.000018 -168.906480 1.660710 -179.182937 -49.690432 1.688159 -5.718834 69.650588 3.587684 -1.430335 21.454555 -0.003088 -0.000001 8.573492 -0.958335 1.130378 7.116107 -1.984074 2.200144 6.798069 -1.970908 2.212071 8.672231 -5.544789 0.083606 -17.863530 -3.021408 0.656624 -142.313002 -64.726902 -40.423221 3.882583 57.096498 38.924599 -27.434928 -14.037891 1.146809 8.276232 -0.116426 -2.659185 -160.657510 77.352664 21.241376 -2.386453 -53.255060 -11.902170 -36.269531 16.401084 -1.455465 16.389877 6.865756 -5.027864 
185.946106 86.207199 368.283600 96.036141 6.557061 97.055786 159.643664 -1.166311 176.638268 -34.027104 -4.461801 -0.272166 73.706415 0.022902 -0.971220 21.454555 0.003110 0.000018 -175.239623 4.073194 -178.038730 -61.570064 0.853769 -5.604135 62.920106 6.112055 4.691653 21.454548 -0.003088 -0.000001 8.522823 -1.232897 0.876492 7.016054 -2.516428 1.677185 6.697770 -2.506388 1.692352 8.701868 -4.874386 0.733591 -17.367148 -3.793203 1.675099 -143.024025 -65.064095 -39.672187 3.463008 57.034351 37.969472 -26.798020 -13.972300 1.131609 8.659217 -0.214889 -4.059830 -158.963419 77.706372 22.962971 -1.293503 -56.300703 -11.034860 -38.614130 16.663971 -1.530376 16.848424 8.076245 -2.834890 
186.494995 87.034500 371.574585 95.916558 6.845692 94.814391 163.029881 -1.555210 176.101565 -33.013053 -4.790756 -1.057780 75.644065 0.470701 -1.438604 21.454557 0.003110 0.000017 178.625511 5.260302 -177.079157 -70.517680 -0.062943 -4.089125 61.637505 4.695416 3.772521 21.454558 -0.003089 0.000002 8.544897 -1.300457 0.549009 7.067115 -2.631844 1.018014 6.748702 -2.625801 1.033897 8.411331 -4.740712 1.349279 -16.594973 -4.420529 2.516221 -143.822009 -65.167900 -38.841496 1.375620 56.426191 37.229104 -26.485308 -13.883921 1.120666 8.717586 0.313170 -3.972257 -156.797893 77.599418 25.171667 -0.898333 -58.670355 -10.950907 -41.223357 16.701500 -1.601510 16.791349 7.954636 -0.473781 
186.781204 87.964073 374.903290 95.038271 7.105354 93.105403 166.633434 -2.440712 176.468497 -31.208377 -5.212372 -1.981734 77.026611 1.019771 -1.911178 21.454558 0.003105 0.000019 172.779320 5.391003 -175.525630 -76.398862 -0.735949 -2.076341 66.084696 2.697244 2.911982 21.454565 -0.003088 -0.000001 8.551267 -1.138613 0.192523 7.087921 -2.286772 0.315188 6.769547 -2.284956 0.328976 8.378118 -4.663783 1.646418 -16.533530 -4.625941 2.904038 -144.703992 -65.622613 -37.909124 -1.785443 55.644335 36.331702 -26.427851 -13.638047 1.103961 8.318506 0.974606 -2.234609 -153.522722 76.786885 28.528759 -0.789197 -60.265430 -11.933672 -43.407297 16.797749 -1.668705 15.794394 6.687629 0.689834 
